<mxfile host="app.diagrams.net" agent="Mozilla/5.0 (Windows NT 10.0; Win64; x64) AppleWebKit/537.36 (KHTML, like Gecko) Chrome/130.0.0.0 Safari/537.36" version="24.8.6">
  <diagram name="페이지-1" id="HObtC5oPkVgvrynjsulA">
    <mxGraphModel dx="1434" dy="780" grid="1" gridSize="10" guides="1" tooltips="1" connect="1" arrows="1" fold="1" page="1" pageScale="1" pageWidth="827" pageHeight="1169" math="0" shadow="0">
      <root>
        <mxCell id="0" />
        <mxCell id="1" parent="0" />
        <mxCell id="wxyRs1XQf3C56py_Pnzs-2" value="Client" style="swimlane;whiteSpace=wrap;html=1;" parent="1" vertex="1">
          <mxGeometry x="299" y="50" width="230" height="200" as="geometry" />
        </mxCell>
        <mxCell id="FDJodpJQQAL7HoEDpI34-25" style="edgeStyle=orthogonalEdgeStyle;rounded=0;orthogonalLoop=1;jettySize=auto;html=1;entryX=0.5;entryY=0;entryDx=0;entryDy=0;" edge="1" parent="wxyRs1XQf3C56py_Pnzs-2" source="FDJodpJQQAL7HoEDpI34-1" target="FDJodpJQQAL7HoEDpI34-23">
          <mxGeometry relative="1" as="geometry" />
        </mxCell>
        <mxCell id="FDJodpJQQAL7HoEDpI34-1" value="Show My Page&lt;br&gt;(Initial state: Interest List" style="rounded=1;whiteSpace=wrap;html=1;" vertex="1" parent="wxyRs1XQf3C56py_Pnzs-2">
          <mxGeometry x="20.5" y="100" width="189" height="40" as="geometry" />
        </mxCell>
        <mxCell id="FDJodpJQQAL7HoEDpI34-23" value="" style="ellipse;html=1;shape=endState;fillColor=strokeColor;" vertex="1" parent="wxyRs1XQf3C56py_Pnzs-2">
          <mxGeometry x="100" y="160" width="30" height="30" as="geometry" />
        </mxCell>
        <mxCell id="FDJodpJQQAL7HoEDpI34-13" value="User" style="swimlane;whiteSpace=wrap;html=1;" vertex="1" parent="1">
          <mxGeometry x="560" y="50" width="230" height="200" as="geometry" />
        </mxCell>
        <mxCell id="FDJodpJQQAL7HoEDpI34-14" value="Request user page" style="rounded=1;whiteSpace=wrap;html=1;" vertex="1" parent="FDJodpJQQAL7HoEDpI34-13">
          <mxGeometry x="20.5" y="100" width="189" height="40" as="geometry" />
        </mxCell>
        <mxCell id="FDJodpJQQAL7HoEDpI34-15" value="" style="edgeStyle=orthogonalEdgeStyle;rounded=0;orthogonalLoop=1;jettySize=auto;html=1;" edge="1" parent="FDJodpJQQAL7HoEDpI34-13" source="FDJodpJQQAL7HoEDpI34-16" target="FDJodpJQQAL7HoEDpI34-14">
          <mxGeometry relative="1" as="geometry" />
        </mxCell>
        <mxCell id="FDJodpJQQAL7HoEDpI34-16" value="" style="ellipse;whiteSpace=wrap;html=1;aspect=fixed;fillColor=#000000;" vertex="1" parent="FDJodpJQQAL7HoEDpI34-13">
          <mxGeometry x="100" y="40" width="30" height="30" as="geometry" />
        </mxCell>
        <mxCell id="FDJodpJQQAL7HoEDpI34-20" style="edgeStyle=orthogonalEdgeStyle;rounded=0;orthogonalLoop=1;jettySize=auto;html=1;entryX=1;entryY=0.5;entryDx=0;entryDy=0;" edge="1" parent="1" source="FDJodpJQQAL7HoEDpI34-14" target="FDJodpJQQAL7HoEDpI34-1">
          <mxGeometry relative="1" as="geometry" />
        </mxCell>
      </root>
    </mxGraphModel>
  </diagram>
</mxfile>
